<?xml version="1.0" standalone="no"?>
<!DOCTYPE svg PUBLIC "-//W3C//DTD SVG 20010904//EN"
 "http://www.w3.org/TR/2001/REC-SVG-20010904/DTD/svg10.dtd">
<svg version="1.0" xmlns="http://www.w3.org/2000/svg"
 width="700.000000pt" height="700.000000pt" viewBox="0 0 700.000000 700.000000"
 preserveAspectRatio="xMidYMid meet">
<metadata>
Created by potrace 1.11, written by Peter Selinger 2001-2013
</metadata>
<g transform="translate(0.000000,700.000000) scale(0.100000,-0.100000)"
fill="#000000" stroke="none">
<path d="M73 5078 c3 -777 7 -1431 9 -1453 3 -22 9 -78 13 -124 4 -47 8 -92
10 -102 2 -10 6 -42 9 -71 4 -29 8 -64 11 -78 2 -14 9 -56 15 -95 7 -38 13
-74 14 -80 2 -5 6 -28 10 -50 49 -252 151 -555 266 -786 179 -357 400 -622
795 -948 135 -111 617 -431 650 -431 5 0 16 -6 24 -14 18 -16 430 -226 531
-271 36 -15 82 -36 102 -46 l37 -19 39 73 c42 76 118 219 184 346 22 42 56
108 77 146 20 39 70 133 110 210 41 77 81 154 91 170 10 17 48 89 85 160 37
72 76 145 87 163 11 18 19 34 17 36 -2 2 -74 38 -159 81 -322 161 -570 314
-765 474 -351 287 -538 633 -593 1094 l-8 67 763 0 763 0 0 1480 0 1480 -1596
0 -1595 0 4 -1412z"/>
<path d="M3743 5068 c2 -783 7 -1436 9 -1453 3 -16 8 -64 12 -105 4 -41 9 -91
11 -110 3 -19 7 -57 10 -83 19 -164 81 -454 136 -632 63 -203 173 -454 269
-613 23 -37 46 -76 53 -87 21 -34 129 -178 180 -240 72 -87 320 -330 407 -400
41 -33 77 -62 80 -65 36 -37 286 -211 452 -313 215 -133 570 -320 788 -415 93
-41 91 -40 101 -22 9 16 103 193 204 385 89 171 151 287 240 455 45 85 117
220 158 300 l76 146 -107 52 c-289 140 -586 317 -762 456 -36 28 -71 55 -78
61 -59 45 -229 229 -282 303 -132 187 -234 426 -266 621 -3 18 -8 43 -10 55
-3 11 -7 48 -10 81 -3 33 -7 66 -9 73 -4 9 153 12 760 12 l765 0 0 1480 0
1480 -1596 0 -1595 0 4 -1422z"/>
</g>
</svg>
